<?xml version="1.0" encoding="utf-8"?>
<svg version="1.1" xmlns:xlink="http://www.w3.org/1999/xlink" width="14px" height="14px" xmlns="http://www.w3.org/2000/svg">
  <g transform="matrix(1 0 0 1 -405 -214 )">
    <path d="M 412 218  C 413.68 218  415 219.32  415 221  C 415 222.68  413.68 224  412 224  C 410.32 224  409 222.68  409 221  C 409 219.32  410.32 218  412 218  Z " fill-rule="nonzero" fill="#ffffff" stroke="none" />
    <path d="M 412 216.5  C 414.52 216.5  416.5 218.48  416.5 221  C 416.5 223.52  414.52 225.5  412 225.5  C 409.48 225.5  407.5 223.52  407.5 221  C 407.5 218.48  409.48 216.5  412 216.5  Z " stroke-width="5" stroke="#2e8ff4" fill="none" />
  </g>
</svg>