<?xml version="1.0" encoding="utf-8"?>
<svg version="1.1" xmlns:xlink="http://www.w3.org/1999/xlink" width="14px" height="12px" xmlns="http://www.w3.org/2000/svg">
  <g transform="matrix(1 0 0 1 -226 -214 )">
    <path d="M 233 218  C 234.68 218  236 218.88  236 220  C 236 221.12  234.68 222  233 222  C 231.32 222  230 221.12  230 220  C 230 218.88  231.32 218  233 218  Z " fill-rule="nonzero" fill="#ffffff" stroke="none" />
    <path d="M 233 216.5  C 235.52 216.5  237.5 218.04  237.5 220  C 237.5 221.96  235.52 223.5  233 223.5  C 230.48 223.5  228.5 221.96  228.5 220  C 228.5 218.04  230.48 216.5  233 216.5  Z " stroke-width="5" stroke="#409eff" fill="none" />
  </g>
</svg>